<?xml version="1.0" standalone="no"?>
<!DOCTYPE svg PUBLIC "-//W3C//DTD SVG 20010904//EN"
 "http://www.w3.org/TR/2001/REC-SVG-20010904/DTD/svg10.dtd">
<svg version="1.0" xmlns="http://www.w3.org/2000/svg"
 width="256.000000pt" height="256.000000pt" viewBox="0 0 256.000000 256.000000"
 preserveAspectRatio="xMidYMid meet">
<metadata>
Created by potrace 1.14, written by Peter Selinger 2001-2017
</metadata>
<g transform="translate(0.000000,256.000000) scale(0.100000,-0.100000)"
fill="#000000" stroke="none">
<path d="M1420 2437 l-165 -93 4 -164 4 -164 -24 15 c-106 67 -247 149 -258
149 -12 0 -249 -134 -303 -172 l-28 -19 0 -887 0 -887 165 -93 166 -93 162 93
162 94 3 161 2 162 140 -80 139 -81 160 94 161 93 0 890 0 891 -156 89 c-86
50 -159 91 -162 92 -4 2 -81 -39 -172 -90z m296 -29 c68 -39 124 -74 124 -77
-1 -7 -245 -145 -255 -144 -17 2 -254 139 -252 146 2 8 236 144 250 146 5 1
64 -31 133 -71z m-387 -159 c-22 -22 -23 -29 -6 -53 18 -24 59 -17 72 12 12
28 20 28 47 -3 12 -14 30 -25 40 -25 11 0 33 -8 51 -17 28 -15 29 -18 12 -21
-30 -6 -45 -22 -45 -48 0 -24 28 -47 52 -42 9 2 13 -19 14 -79 l2 -83 -29 0
c-22 0 -30 -6 -35 -25 -8 -31 10 -55 41 -55 21 0 22 -4 22 -80 -1 -75 -2 -80
-22 -80 -27 0 -45 -18 -45 -47 0 -23 33 -48 50 -38 13 8 25 -44 13 -56 -7 -7
-30 2 -67 24 -32 20 -53 38 -47 42 15 8 14 48 -1 63 -18 18 -46 14 -60 -8 -16
-25 -22 -25 -58 2 -29 21 -30 25 -30 95 0 60 4 77 20 93 11 11 20 27 20 35 0
8 -9 20 -20 27 -17 11 -20 24 -20 93 0 69 3 82 20 93 11 7 20 19 20 27 0 8 -9
24 -20 35 -16 16 -20 33 -20 90 l0 70 24 -11 c23 -11 23 -12 5 -30z m539 -810
l-3 -851 -127 -74 -128 -73 0 339 c0 221 -4 341 -10 345 -6 4 -84 -36 -173
-87 l-162 -94 -5 -354 -5 -354 -125 -72 -125 -72 -3 842 c-1 462 0 846 2 852
4 11 238 154 250 154 4 0 6 -151 6 -335 0 -286 2 -336 15 -341 8 -3 85 35 175
86 l160 91 0 353 0 352 123 71 c67 39 125 72 130 72 4 1 6 -382 5 -850z m-760
622 c98 -59 120 -77 110 -86 -7 -7 -63 -41 -125 -77 l-111 -66 -124 70 c-67
38 -126 72 -130 76 -7 7 240 162 252 158 3 0 60 -34 128 -75z m-380 -136 c55
-29 57 -32 42 -50 -10 -12 -10 -21 -2 -40 14 -31 56 -34 72 -5 13 24 23 25 44
5 8 -9 28 -20 44 -26 28 -9 28 -11 29 -87 0 -76 0 -78 -24 -77 -14 0 -31 -9
-39 -20 -19 -29 8 -69 40 -61 22 5 23 3 23 -82 l1 -88 -28 4 c-36 5 -57 -26
-39 -59 8 -16 18 -20 39 -17 l28 4 -1 -88 c0 -85 -1 -87 -23 -82 -15 4 -26 -1
-38 -17 -14 -20 -14 -26 -2 -44 9 -12 24 -19 38 -18 24 1 25 0 25 -86 l1 -87
-28 4 c-21 3 -31 -1 -39 -17 -18 -33 3 -64 39 -59 l28 4 -1 -87 c0 -86 -1 -87
-25 -86 -14 1 -29 -6 -38 -18 -12 -18 -12 -24 2 -44 12 -16 23 -21 38 -17 22
5 23 3 23 -82 l1 -88 -28 4 c-21 3 -31 -1 -39 -17 -18 -33 3 -64 39 -59 l28 4
-1 -88 c0 -80 -2 -88 -18 -83 -11 4 -27 -3 -40 -16 l-22 -22 -63 34 c-59 31
-78 49 -54 49 5 0 14 10 21 21 9 18 7 25 -9 41 -25 26 -57 17 -71 -20 -8 -24
-10 -21 -10 24 -1 37 3 53 14 58 20 7 20 62 0 70 -22 8 -22 158 0 176 19 16
19 54 0 70 -21 18 -21 165 0 174 9 3 15 18 15 36 0 18 -6 33 -15 36 -12 5 -15
24 -15 84 0 57 4 81 15 90 19 16 19 54 0 70 -11 9 -15 33 -15 90 0 60 3 79 15
84 9 3 15 18 15 36 0 18 -6 33 -15 36 -12 5 -15 24 -15 84 0 57 4 81 15 90 8
7 15 23 15 35 0 12 -7 28 -15 35 -11 9 -15 33 -15 92 0 61 3 80 15 84 8 4 15
18 15 34 0 15 -7 33 -15 40 -14 12 -21 50 -10 50 4 0 18 -7 33 -15z m699 -401
c63 -37 112 -69 109 -71 -2 -3 -53 -33 -113 -67 l-108 -63 -6 26 c-9 35 -11
241 -3 241 4 0 58 -30 121 -66z m140 -538 c1 -73 0 -75 -25 -78 -55 -7 -54
-69 1 -76 25 -3 25 -4 22 -85 -2 -56 -6 -81 -14 -79 -22 5 -51 -19 -51 -41 0
-29 18 -47 46 -47 20 0 22 -4 20 -65 0 -36 -5 -65 -11 -65 -23 1 -39 21 -39
52 -1 29 -5 33 -29 36 -16 2 -35 -2 -42 -8 -11 -9 -26 -5 -70 20 -48 28 -54
34 -44 51 11 21 4 59 -12 59 -5 0 -9 19 -8 43 0 23 3 36 6 29 2 -7 14 -17 25
-23 37 -20 76 39 46 69 -17 17 -44 15 -62 -4 -15 -14 -16 -12 -16 19 0 19 7
40 15 47 19 16 19 44 -1 61 -14 11 -13 15 8 31 13 9 27 18 31 18 5 0 22 10 39
21 l29 21 15 -21 c30 -42 81 -15 71 36 -3 18 0 31 11 40 32 24 38 14 39 -61z"/>
<path d="M1392 2128 c-18 -18 -14 -56 7 -68 26 -14 50 -3 57 26 11 42 -34 72
-64 42z"/>
<path d="M1326 1998 c-27 -38 12 -81 53 -58 25 13 27 42 5 64 -21 22 -40 20
-58 -6z"/>
<path d="M1456 2007 c-38 -27 2 -95 42 -71 24 16 28 55 6 71 -10 7 -21 13 -24
13 -3 0 -14 -6 -24 -13z"/>
<path d="M1387 1883 c-4 -3 -7 -19 -7 -34 0 -22 6 -30 25 -35 43 -11 73 34 43
64 -13 13 -50 16 -61 5z"/>
<path d="M1320 1751 c-16 -31 4 -63 37 -59 34 4 52 32 37 56 -16 26 -60 28
-74 3z"/>
<path d="M1450 1756 c-6 -8 -10 -25 -8 -38 2 -18 10 -24 35 -26 28 -3 33 1 39
23 11 45 -37 75 -66 41z"/>
<path d="M712 1758 c-27 -27 -6 -68 35 -68 29 0 48 33 33 60 -12 22 -49 27
-68 8z"/>
<path d="M830 1751 c-16 -31 4 -63 37 -59 55 7 55 69 0 76 -18 2 -29 -3 -37
-17z"/>
<path d="M776 1634 c-9 -8 -16 -21 -16 -28 0 -15 32 -46 47 -46 13 0 43 33 43
48 0 15 -29 42 -45 42 -7 0 -21 -7 -29 -16z"/>
<path d="M716 1514 c-19 -18 -20 -28 -6 -55 13 -24 42 -24 64 0 19 21 13 47
-15 61 -23 13 -25 13 -43 -6z"/>
<path d="M842 1514 c-26 -18 -28 -37 -6 -58 23 -24 53 -20 66 9 9 21 8 28 -7
45 -22 24 -24 24 -53 4z"/>
<path d="M772 1388 c-27 -27 -6 -68 35 -68 29 0 48 33 33 60 -12 22 -49 27
-68 8z"/>
<path d="M712 1268 c-15 -15 -15 -41 0 -56 18 -18 56 -14 68 7 13 25 13 27 -6
45 -18 19 -45 21 -62 4z"/>
<path d="M830 1261 c-21 -41 21 -81 58 -55 38 26 22 74 -25 74 -12 0 -27 -9
-33 -19z"/>
<path d="M776 1144 c-9 -8 -16 -22 -16 -29 0 -17 27 -45 44 -45 15 0 46 32 46
47 0 13 -33 43 -48 43 -6 0 -18 -7 -26 -16z"/>
<path d="M728 1032 c-10 -2 -21 -15 -24 -29 -9 -33 16 -58 49 -49 58 14 33 91
-25 78z"/>
<path d="M841 1021 c-25 -25 -26 -35 -5 -55 19 -20 48 -20 64 -1 16 19 9 45
-17 62 -19 13 -24 12 -42 -6z"/>
<path d="M772 898 c-27 -27 -6 -68 34 -68 33 0 49 25 36 55 -13 27 -49 34 -70
13z"/>
<path d="M712 778 c-17 -17 -15 -44 4 -62 20 -21 30 -20 54 4 24 24 25 34 4
54 -18 19 -45 21 -62 4z"/>
<path d="M836 774 c-23 -22 -20 -41 10 -60 24 -16 26 -16 46 4 19 18 20 25 10
47 -13 29 -43 33 -66 9z"/>
<path d="M776 651 c-21 -23 -14 -57 13 -66 45 -14 76 32 45 66 -9 10 -22 19
-29 19 -7 0 -20 -9 -29 -19z"/>
<path d="M712 528 c-27 -27 -6 -68 35 -68 29 0 48 33 33 60 -12 22 -49 27 -68
8z"/>
<path d="M830 521 c-16 -31 4 -63 37 -59 55 7 55 69 0 76 -18 2 -29 -3 -37
-17z"/>
<path d="M772 408 c-27 -27 -6 -68 34 -68 33 0 49 25 36 55 -13 27 -49 34 -70
13z"/>
<path d="M836 284 c-9 -8 -16 -21 -16 -28 0 -15 32 -46 47 -46 13 0 43 33 43
48 0 15 -29 42 -45 42 -7 0 -21 -7 -29 -16z"/>
<path d="M1384 896 c-3 -8 -4 -25 -2 -38 2 -18 9 -23 32 -23 36 0 56 27 40 53
-14 22 -62 28 -70 8z"/>
<path d="M1452 778 c-34 -34 6 -90 48 -68 35 19 20 80 -20 80 -9 0 -21 -5 -28
-12z"/>
<path d="M1386 648 c-13 -19 -14 -25 -2 -43 7 -11 21 -21 30 -23 42 -9 64 58
27 78 -28 15 -38 13 -55 -12z"/>
</g>
</svg>
